<?xml version="1.0" encoding="utf-8"?>
<!-- Generator: Adobe Illustrator 17.1.0, SVG Export Plug-In . SVG Version: 6.00 Build 0)  -->
<!DOCTYPE svg PUBLIC "-//W3C//DTD SVG 1.1//EN" "http://www.w3.org/Graphics/SVG/1.1/DTD/svg11.dtd">
<svg version="1.1" id="Layer_1" xmlns="http://www.w3.org/2000/svg" xmlns:xlink="http://www.w3.org/1999/xlink" x="0px" y="0px"
	 width="50px" height="50px" viewBox="0 0 50 50" style="enable-background:new 0 0 50 50;" xml:space="preserve">
<g id="button-arrow">
	<path d="M3.4,37.6C1.1,33.7,0,29.5,0,25s1.1-8.7,3.4-12.5c2.2-3.8,5.3-6.9,9.1-9.1C16.3,1.1,20.5,0,25,0c4.5,0,8.7,1.1,12.5,3.4
		c3.8,2.2,6.9,5.3,9.1,9.1c2.2,3.8,3.4,8,3.4,12.5s-1.1,8.7-3.4,12.5c-2.2,3.8-5.3,6.9-9.1,9.1c-3.8,2.2-8,3.4-12.5,3.4
		c-4.5,0-8.7-1.1-12.5-3.4C8.6,44.4,5.6,41.4,3.4,37.6z M8.3,27.1c0,0.6,0.2,1.1,0.6,1.5c0.4,0.4,0.9,0.6,1.5,0.6h16.3l-6.2,6.2
		c-0.4,0.4-0.6,0.9-0.6,1.5c0,0.6,0.2,1.1,0.6,1.5l3,3c0.4,0.4,0.9,0.6,1.5,0.6s1.1-0.2,1.5-0.6l11.8-11.8l3-3
		c0.4-0.4,0.6-0.9,0.6-1.5s-0.2-1.1-0.6-1.5l-3-3L26.5,8.8c-0.4-0.4-0.9-0.6-1.5-0.6S24,8.4,23.6,8.8l-3,3c-0.4,0.4-0.6,0.9-0.6,1.5
		c0,0.6,0.2,1.1,0.6,1.5l6.2,6.2H10.4c-0.6,0-1.1,0.2-1.5,0.6c-0.4,0.4-0.6,0.9-0.6,1.5V27.1z"/>
</g>
</svg>
