<?xml version="1.0" encoding="utf-8"?>
<!-- Generator: Adobe Illustrator 17.1.0, SVG Export Plug-In . SVG Version: 6.00 Build 0)  -->
<!DOCTYPE svg PUBLIC "-//W3C//DTD SVG 1.1//EN" "http://www.w3.org/Graphics/SVG/1.1/DTD/svg11.dtd">
<svg version="1.1" id="Layer_1" xmlns="http://www.w3.org/2000/svg" xmlns:xlink="http://www.w3.org/1999/xlink" x="0px" y="0px"
	 width="50px" height="50px" viewBox="0 0 50 50" style="enable-background:new 0 0 50 50;" xml:space="preserve">
<g id="Dashboard">
	<path d="M48,5.2H1.9C0.9,5.2,0,6,0,7.1v36.4c0,1,0.9,1.9,1.9,1.9H48c1,0,1.9-0.9,1.9-1.9V7.1C49.9,6,49,5.2,48,5.2z M9.6,41.5H3.8
		V18.3h5.8V41.5z M46.1,41.5H13.4V18.3h32.6V41.5z M46.1,14.5H3.8V9h42.3V14.5z"/>
	<rect x="5.2" y="10.4" width="7.9" height="2.9"/>
	<rect x="21.1" y="24.1" width="16" height="3.8"/>
	<rect x="21.1" y="31.7" width="16" height="3.8"/>
</g>
</svg>
