<?xml version="1.0" encoding="utf-8"?>
<!-- Generator: Adobe Illustrator 16.0.4, SVG Export Plug-In . SVG Version: 6.00 Build 0)  -->
<!DOCTYPE svg PUBLIC "-//W3C//DTD SVG 1.1//EN" "http://www.w3.org/Graphics/SVG/1.1/DTD/svg11.dtd">
<svg version="1.1" id="Capa_1" xmlns="http://www.w3.org/2000/svg" xmlns:xlink="http://www.w3.org/1999/xlink" x="0px" y="0px"
	 width="50px" height="49.999px" viewBox="5.366 5.367 50 49.999" style="enable-background:new 5.366 5.367 50 49.999;"
	 xml:space="preserve">
<g>
	<path class="fillable" d="M52.604,5.367H8.126c-1.524,0-2.76,1.234-2.76,2.759v44.479c0,1.525,1.236,2.761,2.76,2.761h23.946V36.004h-6.516v-7.547
		h6.516v-5.565c0-6.458,3.942-9.975,9.704-9.975c2.762,0,5.13,0.207,5.821,0.297v6.749l-3.996,0.001
		c-3.133,0-3.737,1.49-3.737,3.673v4.818h7.475l-0.979,7.546h-6.497v19.363h12.74c1.525,0,2.763-1.237,2.763-2.759V8.125
		C55.365,6.601,54.13,5.367,52.604,5.367z"/>
</g>
</svg>
