<?xml version="1.0" encoding="utf-8"?>
<!-- Generator: Adobe Illustrator 15.0.0, SVG Export Plug-In . SVG Version: 6.00 Build 0)  -->
<!DOCTYPE svg PUBLIC "-//W3C//DTD SVG 1.1//EN" "http://www.w3.org/Graphics/SVG/1.1/DTD/svg11.dtd">
<svg version="1.1" id="user" xmlns="http://www.w3.org/2000/svg" xmlns:xlink="http://www.w3.org/1999/xlink" x="0px" y="0px"
	 width="50px" height="50px" viewBox="0 0 50 50" style="enable-background:new 0 0 50 50;" xml:space="preserve">
<style type="text/css">
<![CDATA[
	.st0{fill:#231F20;}
]]>
</style>
<g>
	<g>
		<path class="st0" d="M23.932,48.492H11.417c-1.104,0-2-0.896-2-2V34.135c0-1.104,0.896-2,2-2h12.515c1.104,0,2,0.896,2,2v12.357
			C25.932,47.596,25.036,48.492,23.932,48.492z M13.417,44.492h8.515v-8.357h-8.515V44.492z"/>
	</g>
	<g>
		<path class="st0" d="M47.967,48.492H2c-1.104,0-2-0.896-2-2V16.338c0-1.104,0.896-2,2-2h45.967c1.104,0,2,0.896,2,2v30.154
			C49.967,47.596,49.071,48.492,47.967,48.492z M4,44.492h41.967V18.338H4V44.492z"/>
	</g>
	<g>
		<path class="st0" d="M47.967,18.338H2c-0.614,0-1.195-0.282-1.574-0.766s-0.515-1.114-0.369-1.711l3.148-12.83
			c0.22-0.895,1.021-1.523,1.942-1.523h40.299c0.956,0,1.778,0.677,1.963,1.615l2.52,12.83c0.115,0.586-0.038,1.194-0.418,1.656
			C49.132,18.071,48.564,18.338,47.967,18.338z M4.55,14.338h40.986l-1.734-8.83H6.717L4.55,14.338z"/>
	</g>
	<g>
		<path class="st0" d="M7.75,30.223c-3.946,0-7.268-3.006-7.697-6.899C0.018,23.178,0,23.026,0,22.871v-6.532c0-1.104,0.896-2,2-2
			h11.5c1.104,0,2,0.896,2,2v6.532c0,0.159-0.019,0.313-0.053,0.461C15.015,27.221,11.695,30.223,7.75,30.223z M4,22.592
			c0.006,0.046,0.012,0.093,0.015,0.14c0.136,1.958,1.776,3.49,3.735,3.49c1.959,0,3.6-1.533,3.735-3.49
			c0.003-0.047,0.008-0.095,0.015-0.142v-4.253H4V22.592z"/>
	</g>
	<g>
		<path class="st0" d="M19.25,30.223c-3.945,0-7.264-3.002-7.696-6.893c-0.036-0.147-0.054-0.301-0.054-0.459v-6.532
			c0-1.104,0.896-2,2-2H25c1.104,0,2,0.896,2,2v6.532c0,0.158-0.019,0.312-0.053,0.46C26.516,27.221,23.196,30.223,19.25,30.223z
			 M15.5,22.585c0.007,0.048,0.012,0.098,0.016,0.147c0.135,1.957,1.775,3.49,3.734,3.49c1.96,0,3.601-1.532,3.735-3.489
			c0.003-0.048,0.008-0.096,0.015-0.143v-4.253h-7.5V22.585z"/>
	</g>
	<g>
		<path class="st0" d="M30.75,30.223c-3.946,0-7.268-3.006-7.697-6.899C23.018,23.178,23,23.026,23,22.871v-6.532
			c0-1.104,0.896-2,2-2h11.5c1.104,0,2,0.896,2,2v6.532c0,0.159-0.019,0.313-0.054,0.461C38.015,27.221,34.694,30.223,30.75,30.223z
			 M27,22.592c0.007,0.046,0.012,0.093,0.015,0.14c0.136,1.958,1.776,3.49,3.735,3.49c1.96,0,3.601-1.533,3.735-3.49
			c0.003-0.047,0.008-0.095,0.015-0.142v-4.253H27V22.592z"/>
	</g>
	<g>
		<path class="st0" d="M42.25,30.223c-3.944,0-7.265-3.002-7.696-6.893c-0.035-0.147-0.054-0.301-0.054-0.459v-6.532
			c0-1.104,0.896-2,2-2H48c1.104,0,2,0.896,2,2v6.532c0,0.158-0.019,0.312-0.053,0.46C49.516,27.221,46.196,30.223,42.25,30.223z
			 M38.5,22.585c0.007,0.048,0.013,0.098,0.016,0.147c0.135,1.957,1.775,3.49,3.734,3.49c1.96,0,3.601-1.532,3.735-3.489
			c0.003-0.048,0.008-0.096,0.015-0.143v-4.253h-7.5V22.585z"/>
	</g>
</g>
</svg>
