<?xml version="1.0" encoding="utf-8"?>
<!-- Generator: Adobe Illustrator 15.0.0, SVG Export Plug-In . SVG Version: 6.00 Build 0)  -->
<!DOCTYPE svg PUBLIC "-//W3C//DTD SVG 1.1//EN" "http://www.w3.org/Graphics/SVG/1.1/DTD/svg11.dtd">
<svg version="1.1" id="allpay" xmlns="http://www.w3.org/2000/svg" xmlns:xlink="http://www.w3.org/1999/xlink" x="0px" y="0px"
	 width="50px" height="50px" viewBox="0 0 50 50" style="enable-background:new 0 0 50 50;" xml:space="preserve">
<style type="text/css">
<![CDATA[
	.st0{fill:#231F20;}
]]>
</style>
<g>
	<path class="st0" d="M46.429,11.904H3.571C1.602,11.904,0,13.507,0,15.476v19.048c0,1.97,1.602,3.572,3.571,3.572h42.857
		c1.97,0,3.571-1.603,3.571-3.572V15.476C50,13.507,48.398,11.904,46.429,11.904 M46.032,34.127H3.968V15.873h42.064V34.127z"/>
	<path class="st0" d="M22.77,24.567c0.315,0.259,0.915,0.664,1.794,1.216c0.528,0.329,0.838,0.632,0.928,0.91
		c0.091,0.278,0.136,0.741,0.136,1.388c0,0.257-0.047,0.451-0.143,0.582c-0.096,0.131-0.24,0.196-0.436,0.196
		c-0.228,0-0.372-0.094-0.431-0.282c-0.06-0.188-0.09-0.67-0.09-1.445v-0.706h-2.882v0.563c0,1.284,0.288,2.185,0.863,2.7
		c0.575,0.517,1.249,0.813,2.019,0.889v1.121h1.328v-1.086c0.989-0.137,1.731-0.499,2.226-1.084
		c0.495-0.585,0.742-1.392,0.742-2.419c0-0.641-0.092-1.178-0.274-1.608s-0.408-0.764-0.675-0.999s-0.766-0.574-1.498-1.017
		c-0.861-0.522-1.379-0.875-1.555-1.057c-0.181-0.181-0.271-0.497-0.271-0.948c0-0.271,0.044-0.475,0.132-0.61
		c0.088-0.136,0.22-0.203,0.396-0.203c0.22,0,0.362,0.078,0.429,0.235c0.067,0.157,0.1,0.49,0.1,0.999v0.478h2.882
		c0.018-0.242,0.028-0.423,0.028-0.542c0-0.852-0.222-1.519-0.664-2.002c-0.441-0.482-1.108-0.781-1.997-0.895v-0.921h-1.328v0.921
		c-0.975,0.113-1.706,0.416-2.193,0.906c-0.488,0.489-0.732,1.165-0.732,2.025c0,0.596,0.116,1.128,0.347,1.599
		C22.18,23.942,22.454,24.308,22.77,24.567"/>
	<rect x="7.134" y="18.849" class="st0" width="8.482" height="3.571"/>
	<rect x="34.384" y="27.977" class="st0" width="8.481" height="3.571"/>
</g>
</svg>
