<?xml version="1.0" encoding="utf-8"?>
<!-- Generator: Adobe Illustrator 15.0.0, SVG Export Plug-In . SVG Version: 6.00 Build 0)  -->
<!DOCTYPE svg PUBLIC "-//W3C//DTD SVG 1.1//EN" "http://www.w3.org/Graphics/SVG/1.1/DTD/svg11.dtd">
<svg version="1.1" id="order" xmlns="http://www.w3.org/2000/svg" xmlns:xlink="http://www.w3.org/1999/xlink" x="0px" y="0px"
	 width="50px" height="50px" viewBox="0 0 50 50" style="enable-background:new 0 0 50 50;" xml:space="preserve">
<style type="text/css">
<![CDATA[
	.st0{fill:#231F20;}
]]>
</style>
<g>
	<path class="st0" d="M45.665,0.935C45.455,0.864,45.234,0.817,45,0.817H11.743c-3.093,0-5.91,2.807-5.91,5.887v31.612h-3.75
		C0.933,38.316,0,39.25,0,40.4v3.188c0,3.016,2.697,5.562,5.889,5.562h31.434c0.194,0.021,0.394,0.033,0.594,0.033
		c3.038,0,5.417-2.459,5.417-5.597V11.65h4.584c1.15,0,2.083-0.933,2.083-2.083V6.704C50,3.861,48.135,1.481,45.665,0.935
		 M11.743,4.983h27.661c-0.154,0.545-0.238,1.123-0.238,1.721v2.863c0,0.142,0.016,0.281,0.042,0.417h-0.042v33.604
		c0,0.619-0.32,1.277-1.01,1.402c-0.023-0.002-0.045-0.008-0.068-0.008c-0.797,0-1.422-0.613-1.422-1.396v-2.771V40.4
		c0-1.15-0.932-2.084-2.082-2.084H10V6.704C10,5.917,10.945,4.983,11.743,4.983 M4.167,43.588v-1.105h3.75
		c0.143,0,0.282-0.014,0.417-0.041v0.041H32.5v1.105c0,0.238,0.018,0.471,0.045,0.699c0,0.01,0.002,0.02,0.004,0.029
		c0.027,0.227,0.068,0.449,0.121,0.666H5.889C5.02,44.982,4.167,44.291,4.167,43.588 M45.833,7.483h-2.5V6.704
		c0-0.812,0.535-1.721,1.25-1.721c0.716,0,1.25,0.908,1.25,1.721V7.483z"/>
	<rect x="14.167" y="9.983" class="st0" width="15.833" height="4.167"/>
	<rect x="31.666" y="9.983" class="st0" width="3.334" height="4.167"/>
	<rect x="14.167" y="16.65" class="st0" width="15.833" height="4.167"/>
	<rect x="31.666" y="16.65" class="st0" width="3.334" height="4.167"/>
	<rect x="14.167" y="23.317" class="st0" width="15.833" height="4.166"/>
	<rect x="31.666" y="23.317" class="st0" width="3.334" height="4.166"/>
	<rect x="14.167" y="29.982" class="st0" width="15.833" height="4.168"/>
	<rect x="31.666" y="29.982" class="st0" width="3.334" height="4.168"/>
</g>
</svg>
