<?xml version="1.0" encoding="utf-8"?>
<!-- Generator: Adobe Illustrator 17.1.0, SVG Export Plug-In . SVG Version: 6.00 Build 0)  -->
<!DOCTYPE svg PUBLIC "-//W3C//DTD SVG 1.1//EN" "http://www.w3.org/Graphics/SVG/1.1/DTD/svg11.dtd">
<svg version="1.1" id="Layer_1" xmlns="http://www.w3.org/2000/svg" xmlns:xlink="http://www.w3.org/1999/xlink" x="0px" y="0px"
	 width="50px" height="50px" viewBox="0 0 50 50" style="enable-background:new 0 0 50 50;" xml:space="preserve">
<style type="text/css">
	.st0{fill:#E5E5E5;}
	.st1{fill:#F15953;}
	.st2{fill:#2D3E46;}
</style>
<path id="product-shadow" class="st0" d="M38.2,27.9l-5.2,3c-0.3,0.2-0.6,0.2-0.9,0.2c-0.3,0-0.6-0.1-0.9-0.3
	c-0.6-0.3-0.9-0.9-0.9-1.6v-5l-3.4,2v18.7l16.4-9.5V16.8L39,19.2l0.2,7C39.2,26.9,38.8,27.5,38.2,27.9z"/>
<g id="product-filled">
	<polygon class="st1" points="35.3,21.3 34,22.1 34,26 35.5,25.2 	"/>
	<polygon class="st1" points="17.7,8.3 15.8,9.4 32.3,18.8 34.1,17.8 	"/>
</g>
<path id="product-stroke" class="st2" d="M46.9,13.5c0-0.6-0.4-1.2-0.9-1.5L25.9,0.4c-0.6-0.3-1.3-0.3-1.8,0L4,12
	C3.4,12.3,3,12.9,3,13.5c0,0.1,0,0.2,0,0.2h0v22.3c0,0.7,0.3,1.3,0.9,1.6l20.3,11.9c0.3,0.2,0.6,0.3,0.9,0.3c0.3,0,0.6-0.1,0.9-0.2
	L46,38c0.6-0.3,0.9-0.9,0.9-1.6L46.9,13.5L46.9,13.5L46.9,13.5z M35.3,21.3l0.1,3.9L34,26v-3.9L35.3,21.3z M41.4,13.6l-3.6,2.1
	L21.4,6.2L25,4.1L41.4,13.6z M17.7,8.3l16.4,9.4l-1.9,1.1L15.8,9.4L17.7,8.3z M28.6,21L25,23L8.6,13.6l3.5-2L28.6,21z M26.8,26.2
	l3.4-2v5c0,0.7,0.4,1.3,0.9,1.6c0.3,0.2,0.6,0.3,0.9,0.3c0.3,0,0.6-0.1,0.9-0.2l5.2-3c0.6-0.3,1-1,0.9-1.7l-0.2-7l4.3-2.5v18.6
	l-16.4,9.5V26.2z M6.7,16.8l16.4,9.5v18.5L6.7,35.1V16.8z"/>
</svg>
