<?xml version="1.0" encoding="utf-8"?>
<!-- Generator: Adobe Illustrator 15.0.0, SVG Export Plug-In . SVG Version: 6.00 Build 0)  -->
<!DOCTYPE svg PUBLIC "-//W3C//DTD SVG 1.1//EN" "http://www.w3.org/Graphics/SVG/1.1/DTD/svg11.dtd">
<svg version="1.1" id="product_1_" xmlns="http://www.w3.org/2000/svg" xmlns:xlink="http://www.w3.org/1999/xlink" x="0px" y="0px"
	 width="50px" height="50px" viewBox="0 0 50 50" style="enable-background:new 0 0 50 50;" xml:space="preserve">
<style type="text/css">
<![CDATA[
	.st0{fill:#231F20;}
]]>
</style>
<path id="product" class="st0" d="M46.917,13.513h-0.009c-0.023-0.64-0.367-1.229-0.927-1.549L25.875,0.388
	c-0.575-0.33-1.283-0.33-1.859,0L3.911,11.964c-0.578,0.332-0.934,0.948-0.934,1.614c0,0.007,0.002,0.012,0.002,0.017H2.977
	l0.199,22.75c0.006,0.657,0.358,1.265,0.926,1.596L24.16,49.608c0.289,0.168,0.613,0.252,0.937,0.252
	c0.319,0,0.639-0.082,0.925-0.247l20.063-11.488c0.583-0.334,0.94-0.956,0.938-1.626L46.917,13.513z M24.947,4.152l16.371,9.425
	l-3.531,2.034L21.416,6.186L24.947,4.152z M35.392,25.19l-1.441,0.821v-3.893l1.336-0.769L35.392,25.19z M32.219,18.816L15.8,9.417
	l1.881-1.082l16.37,9.426L32.219,18.816z M12.061,11.57l16.419,9.399l-3.533,2.034L8.574,13.578L12.061,11.57z M6.731,16.816
	l16.041,9.236v18.438L6.891,35.251L6.731,16.816z M26.497,45.047V26.409l3.727-2.144v4.954c0,0.665,0.354,1.278,0.926,1.611
	c0.291,0.168,0.615,0.253,0.938,0.253c0.318,0,0.636-0.083,0.922-0.246l5.197-2.965c0.599-0.341,0.959-0.98,0.94-1.668l-0.189-6.966
	l4.248-2.447l0.087,18.639L26.497,45.047z"/>
</svg>
