<?xml version="1.0" encoding="utf-8"?>
<!-- Generator: Adobe Illustrator 17.1.0, SVG Export Plug-In . SVG Version: 6.00 Build 0)  -->
<!DOCTYPE svg PUBLIC "-//W3C//DTD SVG 1.1//EN" "http://www.w3.org/Graphics/SVG/1.1/DTD/svg11.dtd">
<svg version="1.1" id="Layer_1" xmlns="http://www.w3.org/2000/svg" xmlns:xlink="http://www.w3.org/1999/xlink" x="0px" y="0px"
	 width="50px" height="50px" viewBox="0 0 50 50" style="enable-background:new 0 0 50 50;" xml:space="preserve">
<style type="text/css">
	.st0{fill:#FFFFFF;}
	.st1{fill:#E5E5E5;}
	.st2{fill:#F15853;}
	.st3{fill:#2F3C46;}
</style>
<g id="product-filled-white">
	<polygon class="st0" points="25,4.55 21.85,6.53 36.68,15.84 39.83,13.86 	"/>
	<polygon class="st0" points="10.17,13.86 25,23.17 28.3,21.1 13.46,11.79 	"/>
	<polygon class="st0" points="8.43,35.05 23,44.2 23,26.64 8.43,17.49 	"/>
</g>
<path id="product-filled-grey" class="st1" d="M41.57,17.49v17.56L27,44.2V26.64l3.11-1.95v6.92c0,0.03,0.01,0.06,0.01,0.1
	c0,0.05,0.01,0.11,0.02,0.17c0.01,0.05,0.02,0.09,0.03,0.14c0.02,0.05,0.03,0.09,0.05,0.14c0.02,0.05,0.05,0.1,0.07,0.15
	c0.02,0.03,0.03,0.06,0.05,0.1l0.01,0.01c0.07,0.1,0.14,0.19,0.22,0.27c0.03,0.02,0.05,0.04,0.08,0.06c0.06,0.05,0.13,0.1,0.2,0.14
	c0.03,0.02,0.06,0.04,0.1,0.06c0.07,0.03,0.15,0.06,0.23,0.09c0.03,0.01,0.06,0.02,0.09,0.02c0.11,0.03,0.22,0.05,0.34,0.05
	c0.13,0,0.25-0.02,0.37-0.05c0.03-0.01,0.06-0.02,0.09-0.03c0.1-0.04,0.2-0.08,0.29-0.13c0.02-0.01,0.03-0.01,0.05-0.02l5.55-3.49
	c0.43-0.27,0.7-0.75,0.7-1.27v-8.8L41.57,17.49z"/>
<g id="product-filled-pink">
	<polygon class="st2" points="33.11,22.8 33.11,28.89 35.66,27.29 35.66,21.2 	"/>
	<polygon class="st2" points="19.02,8.3 16.29,10.02 31.12,19.33 33.86,17.61 	"/>
</g>
<path id="product-outline" class="st3" d="M21.85,6.53l14.83,9.31l3.15-1.98L25,4.55L21.85,6.53z M35.66,27.29V21.2l-2.55,1.6v6.09
	L35.66,27.29z M28.3,21.1l-14.84-9.31l-3.29,2.07L25,23.17L28.3,21.1z M26.06,0.49l18.57,11.66c0.58,0.36,0.94,1,0.94,1.69v0.04
	v22.24v0.04c0,0.05-0.02,0.09-0.02,0.13c-0.01,0.09-0.01,0.18-0.03,0.27c-0.03,0.11-0.06,0.21-0.1,0.31
	c-0.01,0.02-0.01,0.03-0.02,0.05c-0.16,0.38-0.41,0.71-0.77,0.93L26.06,49.51c-0.01,0.01-0.03,0.01-0.05,0.02
	c-0.01,0.01-0.03,0.02-0.04,0.03c-0.09,0.05-0.19,0.08-0.28,0.11c-0.06,0.02-0.11,0.05-0.17,0.07c-0.17,0.05-0.34,0.07-0.52,0.07
	s-0.35-0.02-0.52-0.07c-0.06-0.02-0.11-0.05-0.17-0.07c-0.09-0.03-0.19-0.06-0.28-0.11c-0.01-0.01-0.03-0.02-0.04-0.03
	c-0.02-0.01-0.04-0.01-0.05-0.02L5.37,37.85c-0.36-0.22-0.61-0.55-0.77-0.93c-0.01-0.02-0.01-0.03-0.02-0.05
	c-0.04-0.1-0.07-0.2-0.1-0.31c-0.01-0.09-0.02-0.18-0.03-0.27c0-0.04-0.02-0.08-0.02-0.13v-0.04V13.88v-0.04
	c0-0.69,0.36-1.33,0.94-1.69L23.94,0.49c0.03-0.02,0.07-0.03,0.11-0.05c0.07-0.04,0.13-0.07,0.2-0.1c0.06-0.03,0.12-0.04,0.18-0.06
	s0.12-0.04,0.19-0.05c0.06-0.01,0.12-0.02,0.19-0.03c0.06,0,0.13-0.01,0.19-0.01c0.07,0,0.13,0.01,0.19,0.01
	c0.07,0.01,0.13,0.02,0.19,0.03c0.07,0.01,0.13,0.03,0.2,0.05c0.06,0.02,0.11,0.03,0.17,0.06c0.07,0.03,0.14,0.06,0.21,0.1
	C25.99,0.46,26.03,0.47,26.06,0.49z M16.29,10.02l14.83,9.31l2.74-1.72L19.02,8.3L16.29,10.02z M30.95,32.95
	c-0.04-0.02-0.07-0.04-0.1-0.06c-0.07-0.04-0.14-0.09-0.2-0.14c-0.03-0.02-0.05-0.04-0.08-0.06c-0.08-0.08-0.15-0.17-0.22-0.27
	l-0.01-0.01c-0.02-0.04-0.03-0.07-0.05-0.1c-0.02-0.05-0.05-0.1-0.07-0.15c-0.02-0.05-0.03-0.09-0.05-0.14
	c-0.01-0.05-0.02-0.09-0.03-0.14c-0.01-0.06-0.02-0.12-0.02-0.17c0-0.04-0.01-0.07-0.01-0.1v-6.92L27,26.64V44.2l14.57-9.15V17.49
	l-2.91,1.83v8.8c0,0.52-0.27,1-0.7,1.27l-5.55,3.49c-0.02,0.01-0.03,0.01-0.05,0.02c-0.09,0.05-0.19,0.09-0.29,0.13
	c-0.03,0.01-0.06,0.02-0.09,0.03c-0.12,0.03-0.24,0.05-0.37,0.05c-0.12,0-0.23-0.02-0.34-0.05c-0.03,0-0.06-0.01-0.09-0.02
	C31.1,33.01,31.02,32.98,30.95,32.95z M23,44.2V26.64L8.43,17.49v17.56L23,44.2z"/>
</svg>
