<?xml version="1.0" encoding="utf-8"?>
<!-- Generator: Adobe Illustrator 15.0.0, SVG Export Plug-In . SVG Version: 6.00 Build 0)  -->
<!DOCTYPE svg PUBLIC "-//W3C//DTD SVG 1.1//EN" "http://www.w3.org/Graphics/SVG/1.1/DTD/svg11.dtd">
<svg version="1.1" id="review" xmlns="http://www.w3.org/2000/svg" xmlns:xlink="http://www.w3.org/1999/xlink" x="0px" y="0px"
	 width="50px" height="50px" viewBox="0 0 50 50" style="enable-background:new 0 0 50 50;" xml:space="preserve">
<style type="text/css">
<![CDATA[
	.st0{fill:#231F20;}
]]>
</style>
<path class="st0" d="M25,2.666C12.685,2.666,2.666,12.685,2.666,25c0,12.315,10.019,22.334,22.334,22.334
	c12.315,0,22.334-10.019,22.334-22.334C47.334,12.685,37.315,2.666,25,2.666 M25,43.207C14.96,43.207,6.792,35.04,6.792,25
	S14.96,6.792,25,6.792S43.207,14.96,43.207,25S35.04,43.207,25,43.207"/>
<path class="st0" d="M36.128,21.677h-7.901l-2.441-7.515c-0.11-0.34-0.427-0.57-0.785-0.57c-0.358,0-0.674,0.23-0.786,0.57
	l-2.442,7.515h-7.901c-0.358,0-0.675,0.229-0.785,0.57c-0.11,0.34,0.011,0.713,0.3,0.922l6.393,4.644l-2.441,7.516
	c-0.111,0.34,0.011,0.712,0.3,0.922c0.145,0.105,0.315,0.158,0.485,0.158c0.17,0,0.34-0.053,0.485-0.158l6.393-4.644l6.392,4.644
	c0.289,0.211,0.68,0.211,0.97,0c0.289-0.21,0.41-0.582,0.299-0.922l-2.44-7.516l6.393-4.644c0.288-0.209,0.409-0.582,0.3-0.922
	C36.802,21.906,36.485,21.677,36.128,21.677"/>
</svg>
