<?xml version="1.0" encoding="utf-8"?>
<!-- Generator: Adobe Illustrator 15.0.0, SVG Export Plug-In . SVG Version: 6.00 Build 0)  -->
<!DOCTYPE svg PUBLIC "-//W3C//DTD SVG 1.1//EN" "http://www.w3.org/Graphics/SVG/1.1/DTD/svg11.dtd">
<svg version="1.1" id="setting" xmlns="http://www.w3.org/2000/svg" xmlns:xlink="http://www.w3.org/1999/xlink" x="0px" y="0px"
	 width="50px" height="50px" viewBox="0 0 50 50" style="enable-background:new 0 0 50 50;" xml:space="preserve">
<style type="text/css">
<![CDATA[
	.st0{fill:#231F20;}
]]>
</style>
<g>
	<path class="st0" d="M49.386,35.734l-3.223-2.68c0.034-0.357,0.051-0.705,0.051-1.051s-0.017-0.695-0.051-1.051l3.223-2.68
		c0.638-0.529,0.801-1.441,0.387-2.16l-2.493-4.317c-0.413-0.717-1.283-1.035-2.064-0.746l-0.562,0.208V3.6
		c0-0.94-0.762-1.702-1.702-1.702H1.702C0.762,1.898,0,2.66,0,3.6v32.56c0,0.941,0.762,1.703,1.702,1.703h17.68
		c0.005,0.01,0.009,0.021,0.014,0.031l2.493,4.316c0.415,0.719,1.286,1.037,2.065,0.746l3.934-1.453
		c0.571,0.402,1.179,0.752,1.818,1.047l0.709,4.137c0.141,0.818,0.849,1.414,1.678,1.414h4.985c0.829,0,1.537-0.596,1.678-1.414
		l0.71-4.137c0.638-0.295,1.246-0.645,1.817-1.047l3.933,1.453c0.78,0.291,1.651-0.027,2.064-0.746l2.493-4.316
		C50.187,37.176,50.023,36.264,49.386,35.734 M41.579,37.984c-0.573-0.213-1.221-0.1-1.688,0.297
		c-0.742,0.627-1.591,1.115-2.522,1.451c-0.576,0.209-0.997,0.711-1.101,1.314l-0.626,3.65h-2.115l-0.625-3.65
		c-0.104-0.604-0.523-1.105-1.101-1.314c-0.932-0.336-1.78-0.824-2.522-1.451c-0.469-0.396-1.115-0.51-1.689-0.297l-3.469,1.281
		l-0.811-1.402l-0.247-0.43l2.847-2.365c0.201-0.166,0.347-0.379,0.451-0.609c0.141-0.309,0.198-0.652,0.138-0.998
		c-0.094-0.521-0.138-0.998-0.138-1.457c0-0.461,0.044-0.938,0.138-1.457c0.107-0.604-0.117-1.217-0.589-1.609l-2.847-2.365
		l1.057-1.831l3.469,1.281c0.576,0.214,1.221,0.099,1.689-0.296c0.742-0.628,1.591-1.117,2.522-1.453
		c0.577-0.208,0.997-0.709,1.101-1.313l0.625-3.65h2.115l0.626,3.65c0.104,0.604,0.524,1.106,1.101,1.313
		c0.932,0.336,1.78,0.825,2.522,1.453c0.379,0.321,0.877,0.446,1.358,0.371c0.111-0.017,0.223-0.034,0.33-0.074l3.074-1.136
		l0.396-0.146l1.058,1.831l-1.453,1.207l-1.394,1.158c-0.471,0.393-0.696,1.006-0.588,1.609c0.092,0.52,0.138,0.996,0.138,1.457
		c0,0.459-0.046,0.936-0.138,1.457c-0.108,0.604,0.117,1.217,0.588,1.607l1.387,1.154l1.46,1.211l-1.058,1.832L41.579,37.984z
		 M3.405,5.303h37.844v4.993H3.405V5.303z M3.405,13.701h5.213v20.758H3.405V13.701z M12.022,13.701h29.227v8.78
		c-0.562-0.392-1.158-0.736-1.784-1.024l-0.71-4.136c-0.141-0.817-0.849-1.415-1.678-1.415h-4.985c-0.829,0-1.537,0.597-1.678,1.415
		l-0.709,4.136c-0.64,0.294-1.247,0.644-1.818,1.046l-3.934-1.452c-0.779-0.289-1.65,0.028-2.065,0.746l-2.493,4.317
		c-0.414,0.719-0.25,1.631,0.387,2.16l3.224,2.68c-0.035,0.355-0.051,0.705-0.051,1.051s0.017,0.693,0.051,1.051l-1.689,1.404
		h-9.294V13.701z"/>
	<path class="st0" d="M34.585,24.95c-3.89,0-7.054,3.164-7.054,7.054c0,0.863,0.163,1.689,0.449,2.455
		c0.521,1.395,1.465,2.586,2.684,3.404c1.122,0.752,2.471,1.193,3.921,1.193c1.449,0,2.798-0.441,3.92-1.193
		c1.219-0.818,2.162-2.01,2.684-3.404c0.021-0.055,0.041-0.109,0.06-0.164c0.249-0.719,0.39-1.488,0.39-2.291
		c0-0.805-0.141-1.572-0.39-2.293C40.294,26.945,37.671,24.95,34.585,24.95 M34.585,35.652c-1.064,0-2.014-0.465-2.683-1.193
		c-0.594-0.65-0.967-1.508-0.967-2.455c0-2.014,1.637-3.648,3.649-3.648c2.012,0,3.647,1.635,3.647,3.648
		c0,0.947-0.372,1.805-0.967,2.455C36.599,35.188,35.648,35.652,34.585,35.652"/>
	<rect x="4.647" y="6.552" class="st0" width="7.038" height="2.569"/>
</g>
</svg>
