<?xml version="1.0" encoding="utf-8"?>
<!-- Generator: Adobe Illustrator 17.1.0, SVG Export Plug-In . SVG Version: 6.00 Build 0)  -->
<!DOCTYPE svg PUBLIC "-//W3C//DTD SVG 1.1//EN" "http://www.w3.org/Graphics/SVG/1.1/DTD/svg11.dtd">
<svg version="1.1" id="logo" xmlns="http://www.w3.org/2000/svg" xmlns:xlink="http://www.w3.org/1999/xlink" x="0px" y="0px"
	 width="177.333px" height="66.667px" viewBox="0 0 177.333 66.667" style="enable-background:new 0 0 177.333 66.667;"
	 xml:space="preserve">
<style type="text/css">
	.st0{fill:#333333;}
</style>
<g>
	<path class="st0" d="M33.925,24.573c0.459-1.832,0.968-3.885,1.796-5.758c3.589,2.039,7.24,4.493,11.968,5.016
		c3.508,0.388,8.009-0.359,10.492-2.997c2.255-2.396,3.287-6.096,2.809-9.327c-0.598-4.051-3.706-6.264-7.667-7.073
		c0,0,6.528,8.742-17.679,3.912c-5.629-1.123-11.711-1.617-17.322-0.14c-0.427-0.498-1.228-0.774-2.094-0.654
		c-1.195,0.166-2.058,1.021-1.927,1.909c0.01,0.066,0.026,0.13,0.046,0.192c-0.878,0.426-1.768,0.934-2.639,1.513
		c-0.638-0.609-1.828-0.493-2.696,0.279c-0.803,0.714-1.054,1.741-0.636,2.422c-0.605,0.599-1.167,1.234-1.671,1.897
		c-0.823-0.301-1.856,0.241-2.353,1.259c-0.462,0.948-0.3,1.983,0.34,2.464c-0.247,0.757-0.403,1.532-0.449,2.32
		c-0.179,0.01-0.354,0.052-0.518,0.132c-0.828,0.402-1.061,1.576-0.52,2.623c0.407,0.788,1.136,1.278,1.824,1.302
		c2.695,5.786,10.872,5.923,14.696,0.753c-1.254,0.06-2.418-0.865-2.831-2.015c-0.414-1.149-0.172-2.449,0.406-3.529
		c0.886-1.655,2.38-2.979,4.097-3.788c2.658-1.252,4.977-1.55,7.118-1.276c-1.077,2.247-1.723,4.686-2.118,7.125
		c-0.759,4.677-0.704,9.463-1.657,14.107c-0.165,0.804-0.374,1.631-0.9,2.273c-1.085,1.323-2.272,0.853-3.138-0.288
		c-0.142-0.187-2.249,2.716-2.358,2.935c-1.397,2.813-1.066,6.092,1.786,7.871c2.056,1.283,4.801,1.315,7.023,0.326
		c2.056-0.915,4.246-2.924,4.794-5.105c0.666-2.651,0.35-5.569,0.377-8.273C32.367,32.804,32.907,28.632,33.925,24.573z
		 M18.883,10.349c0.245-0.084,0.494-0.127,0.74-0.127c0.595,0,1.072,0.253,1.215,0.644c0.094,0.258,0.039,0.559-0.154,0.847
		c-0.218,0.326-0.594,0.598-1.031,0.748c-0.245,0.084-0.494,0.127-0.74,0.127c-0.596,0-1.073-0.253-1.215-0.644
		C17.489,11.371,18.032,10.641,18.883,10.349z M11.753,14.015c0.07-0.382,0.305-0.776,0.647-1.079
		c0.384-0.341,0.854-0.536,1.291-0.536c0.21,0,0.505,0.047,0.717,0.271c0.423,0.448,0.218,1.326-0.447,1.917
		c-0.383,0.341-0.854,0.536-1.291,0.536c-0.21,0-0.506-0.047-0.718-0.272C11.762,14.651,11.691,14.353,11.753,14.015z M6.818,24.102
		c0.067-0.338,0.243-0.591,0.495-0.713c0.112-0.054,0.236-0.082,0.369-0.082c0.527,0,1.094,0.411,1.41,1.024
		c0.207,0.401,0.283,0.85,0.207,1.232c-0.067,0.338-0.243,0.591-0.495,0.713c-0.112,0.054-0.236,0.082-0.369,0.082
		c-0.527,0-1.094-0.411-1.41-1.024C6.818,24.932,6.742,24.483,6.818,24.102z M9.067,20.369c-0.125,0-0.242-0.025-0.349-0.074
		c-0.566-0.259-0.719-1.147-0.333-1.939c0.303-0.621,0.881-1.055,1.407-1.055c0.125,0,0.242,0.025,0.35,0.074
		c0.255,0.117,0.436,0.366,0.511,0.702c0.084,0.38,0.02,0.83-0.178,1.236C10.172,19.935,9.593,20.369,9.067,20.369z"/>
	<path class="st0" d="M162.708,22.333c1.327,0.965,2.214,2.113,2.988,3.533c0.106-0.061,0.157-0.18,0.201-0.292
		c0.404-1.034,0.684-1.886,0.546-2.971c-0.167-1.312-0.391-2.467-1.205-3.573c-1.014-1.378-2.588-0.778-3.242,0.623
		C161.537,20.632,161.821,21.688,162.708,22.333z"/>
	<path class="st0" d="M171.956,20.892c-1.103,0.104-1.905,0.87-2.039,1.937c-0.2,1.596-0.783,2.914-1.666,4.274
		c0.107,0.058,0.24,0.042,0.361,0.023c1.126-0.176,2.027-0.367,2.927-1.024c1.089-0.795,2.01-1.56,2.592-2.796
		C174.855,21.765,173.534,20.742,171.956,20.892z"/>
	<path class="st0" d="M81.975,50.01c4.848-0.587,8.516-4.046,9.393-9.688c0.996-6.407-2.761-11.284-7.609-10.697
		c-5.299,0.641-9.838,6.087-10.204,11.115c-0.051,0.704-0.018,1.42,0.091,2.127c-2.874,1.264-6.372,0.48-8.303-1.978
		c-0.087-0.111-0.17-0.225-0.251-0.342c1.74-0.417,3.425-1.46,4.51-2.607c1.373-1.453,2.249-3.129,2.492-5.318
		c0.243-2.189-0.517-2.723-0.851-3.09c-0.334-0.367-0.903-0.766-1.53-0.98c-0.264-0.09-0.89-0.375-0.954,0.081
		c-0.358,2.565-2.555,5.068-5.098,5.912c-0.645,0.214-1.3,0.302-1.954,0.344c0.214-1.692,0.383-3.527-0.324-4.802
		c-0.565-1.02-1.783-1.76-2.898-1.76c-0.651,0-1.226,0.247-1.665,0.715c-0.884,0.943-0.834,2.516-0.791,3.905
		c0.016,0.528,0.032,1.027-0.005,1.445l-0.015,0.164c-0.158,1.76-0.326,3.399-0.514,5.01c-0.055,0.471-0.098,0.958-0.14,1.43
		c-0.013,0.144-0.026,0.289-0.039,0.434c-0.482,0.852-1.004,1.327-1.5,1.327c-0.149,0-0.295-0.045-0.433-0.133
		c-0.494-0.314-0.758-0.892-0.895-1.507c0.055-0.26,0.105-0.524,0.147-0.794c0.996-6.407-2.761-11.284-7.609-10.697
		c-5.299,0.641-9.838,6.087-10.204,11.115c-0.341,4.691,2.999,9.927,8.42,9.271c2.009-0.243,3.814-0.981,5.303-2.162
		c0.744,0.475,1.524,0.714,2.331,0.714c1.26,0,2.389-0.577,3.272-1.242c-0.065,0.305-0.126,0.611-0.175,0.919
		c-0.107,0.688-0.169,1.656,0.537,2.114c0.226,0.146,0.513,0.22,0.854,0.22c0.091,0,0.182-0.005,0.271-0.014
		c3.348-0.328,4.715-3.923,5.314-7.54c0.697,1.654,1.029,3.485,1.998,5.011c0.831,1.31,2.207,2.285,3.746,2.654
		c3.654,0.877,6.162-1.614,8.34-4.1C76.477,48.845,78.888,50.383,81.975,50.01z M45.676,39.836
		c-0.655,1.313-1.981,2.005-2.962,1.545c-0.98-0.46-1.244-1.897-0.589-3.211c0.655-1.313,1.981-2.005,2.962-1.545
		C46.067,37.086,46.331,38.523,45.676,39.836z M80.857,38.171c0.655-1.313,1.981-2.005,2.962-1.545
		c0.98,0.46,1.244,1.897,0.589,3.211c-0.655,1.313-1.981,2.005-2.962,1.545C80.465,40.922,80.202,39.485,80.857,38.171z"/>
	<path class="st0" d="M166.594,29.59c1.577,5.254-2.66,7.005-2.66,7.005c-0.431-1.468-1.953-3.337-2.22-3.612
		c-1.035-1.067-2.1-2.17-3.554-2.677c-2.819-0.983-7.147-0.857-9.267,1.456c-0.443,0.483-0.634,1.129-0.812,1.752
		c-0.806,2.818-1.478,5.628-1.937,8.48c-0.612,0.442-1.149,0.518-1.286,0.531c-0.372-0.111-0.64-0.326-0.821-0.656
		c-0.011-0.02-0.018-0.041-0.028-0.061c0.125-0.477,0.228-0.972,0.308-1.485c0.996-6.407-2.761-11.284-7.609-10.697
		c-5.299,0.641-9.838,6.087-10.204,11.115c-0.041,0.56-0.027,1.128,0.034,1.693c-0.054,0.037-0.106,0.077-0.16,0.113
		c-0.524,0.347-1.071,0.546-1.5,0.546c-0.25,0-0.454-0.065-0.622-0.197c-0.328-0.259-0.447-0.757-0.528-1.256
		c-0.159-0.988-0.185-2.03-0.211-3.037c-0.058-2.282-0.118-4.642-1.681-6.676c-1.466-1.905-3.516-2.955-5.774-2.955
		c-0.912,0-1.832,0.174-2.735,0.518c-1.496,0.569-2.708,1.64-3.697,2.612c-0.13,0.128-0.315,0.31-0.467,0.539
		c-1.102-1.313-2.219-2.442-3.821-3.169c-1.178-0.534-2.325-0.805-3.409-0.805c-2.205,0-4.202,1.133-5.774,3.277
		c-1.251,1.705-2.226,4.039-2.745,6.571c-0.164,0.802-0.309,1.626-0.449,2.424c-0.536,3.054-1.089,6.212-2.869,8.735
		c-2.061,2.924-6.42,5.129-10.138,5.129c-0.687,0-1.345-0.074-1.955-0.221l-0.499-0.12l-0.018,0.498
		c-0.114,3.277,1.345,5.867,4.004,7.107c0.841,0.392,1.816,0.632,2.979,0.733c0.356,0.031,0.713,0.047,1.062,0.047
		c6.407,0,10.355-5.207,11.311-10.045c0.594-3.004,1.211-5.644,1.885-8.071c0.093-0.336,0.192-0.789,0.307-1.313
		c0.496-2.268,1.421-6.414,3.353-6.49c1.194-0.047,1.739,0.759,1.739,0.759c-0.164,0.211-0.383,0.509-0.626,0.965
		c-1.29,2.422-1.449,4.019-1.504,5.329c-0.088,2.08,0.448,3.781,1.571,4.919c1.023,1.037,2.456,1.562,4.26,1.562l0.135-0.001
		c1.91-0.028,3.557-1.238,4.564-3.124c1.378-2.58,1.737-6.432-0.347-10.339c0.543-0.622,1.268-1.751,3.001-1.351
		c1.905,0.44,1.944,3.283,1.948,6.213c0.002,1.787,0.004,3.475,0.463,4.546c0.337,0.787,0.724,1.409,1.183,1.9
		c1.071,1.145,2.558,1.751,4.302,1.751c1.223,0,2.518-0.318,3.648-0.895c0.863-0.441,1.535-0.96,2.02-1.56
		c1.466,1.682,3.583,2.721,6.179,2.406c2.009-0.243,3.814-0.981,5.303-2.162c0.744,0.475,1.524,0.714,2.331,0.714
		c1.129,0,2.152-0.463,2.988-1.038c-0.005,0.087-0.011,0.173-0.015,0.259c-0.04,0.84-0.054,1.714,0.298,2.482
		c0.924,2.014,4.593,1.907,5.114-0.536c0.432-2.028,0.473-6.129,2.015-11.009c0.763-2.415,3.419-2.82,4.664-1.718
		c0.981,0.868,1.479,1.465,2.246,2.82c-2.672,1.927-4.166,6.372-2.787,9.066c1.178,2.301,3.171,3.087,4.422,3.173
		c2.008,0.139,3.294-0.085,4.88-1.456c2.813-2.431,0.495-8.386-0.283-9.642c0.687-0.367,5.651-2.035,5.023-6.7
		C170.602,30.398,166.594,29.59,166.594,29.59z M109.184,44.002c-0.173,0.686-0.552,1.252-1.344,1.253
		c-0.958,0.001-1.401-0.796-1.401-1.807c0-2.396,1.47-3.22,1.555-3.149C108.958,41.104,109.505,42.727,109.184,44.002z
		 M137.356,39.836c-0.655,1.313-1.981,2.005-2.962,1.545c-0.98-0.46-1.244-1.897-0.589-3.211c0.655-1.313,1.981-2.005,2.962-1.545
		C137.747,37.086,138.011,38.523,137.356,39.836z M162.214,47.573c-0.677,0.281-1.476-0.438-1.476-1.482
		c0-1.629,1.441-2.552,1.441-2.552S164.183,46.757,162.214,47.573z"/>
</g>
<g>
	<path class="st0" d="M76.828,20.564v-6.094c-0.375,0.594-0.797,1.172-1.266,1.734c-0.125-0.531-0.234-1.047-0.328-1.547
		c1.125-1.625,1.984-3.359,2.578-5.203l1.312,0.375c-0.312,0.844-0.656,1.657-1.031,2.438v8.297H76.828z M78.844,14.611
		l-0.141-1.266l2.438-0.281c0-0.281-0.031-0.75-0.094-1.406c-0.031-0.968-0.063-1.718-0.094-2.25h1.312
		c0,1.219,0.047,2.391,0.141,3.516l3.984-0.469l0.141,1.219L82.5,14.189c0.156,1.75,0.453,3.078,0.891,3.984
		c0.375,0.719,0.781,1.078,1.219,1.078c0.375,0,0.593-0.25,0.656-0.75c0-0.062,0.016-0.141,0.047-0.234
		c0.125-0.625,0.203-1.062,0.234-1.312c0.094,0.031,0.218,0.078,0.375,0.141c0.344,0.125,0.593,0.219,0.75,0.281
		c-0.031,0.406-0.141,0.969-0.328,1.688c-0.25,1-0.797,1.484-1.641,1.453c-1.031,0-1.828-0.562-2.391-1.688
		c-0.532-0.968-0.891-2.468-1.078-4.5L78.844,14.611z M84.937,12.221c-0.031-0.031-0.094-0.094-0.188-0.188
		c-0.688-0.625-1.25-1.109-1.688-1.453l0.844-0.797c0.844,0.656,1.484,1.188,1.922,1.594L84.937,12.221z"/>
	<path class="st0" d="M94.845,20.564l-0.891-0.516c0.344-0.438,0.75-1.062,1.219-1.875l0.891,0.422
		C95.689,19.221,95.283,19.877,94.845,20.564z M94.47,17.752V9.971h3.328v7.781H94.47z M95.408,11.002v1.266h1.453v-1.266H95.408z
		 M95.408,13.205v1.266h1.453v-1.266H95.408z M95.408,15.455v1.266h1.453v-1.266H95.408z M97.329,20.424
		c-0.281-0.594-0.641-1.203-1.078-1.828l0.797-0.422c0.469,0.625,0.875,1.203,1.219,1.734L97.329,20.424z M98.361,11.049v-0.797
		h1.406V9.408h1.078v0.844h1.781V9.408h1.078v0.844h1.359v0.797h-1.359v0.75h1.125v0.75h-1.125v0.703h1.688v0.844h-3.141v0.75h2.531
		v3.047h0.609v0.844h-0.609v0.422c0.031,0.906-0.438,1.343-1.406,1.312c-0.25,0.031-0.719,0.047-1.406,0.047
		c0-0.031-0.016-0.094-0.047-0.188c-0.063-0.344-0.11-0.609-0.141-0.797c0.531,0,0.953,0,1.266,0c0.5,0.031,0.734-0.172,0.703-0.609
		v-0.188H99.72v1.828h-1.031v-1.828h-0.609v-0.844h0.609v-3.047h2.531v-0.75h-3.047v-0.844h1.594v-0.703h-1.172v-0.75h1.172v-0.75
		H98.361z M99.72,15.642v0.75h1.5v-0.75H99.72z M99.72,17.096v0.797h1.5v-0.797H99.72z M100.845,11.049v0.75h1.781v-0.75H100.845z
		 M100.845,12.549v0.703h1.781v-0.703H100.845z M103.751,15.642h-1.5v0.75h1.5V15.642z M102.251,17.096v0.797h1.5v-0.797H102.251z"
		/>
	<path class="st0" d="M113.19,11.939v-1.031h1.734v-1.5h1.125v1.5h1.5v1.031h-1.5v1.5h1.734v1.031h-1.359v1.688h1.359v1.031h-1.359
		v1.875c0.5,0.125,1.172,0.188,2.016,0.188c0.938,0,2.547,0,4.828,0c0.438,0,0.719,0,0.844,0c-0.188,0.438-0.297,0.797-0.328,1.078
		c-2.438,0-4.266-0.016-5.484-0.047c-2.125,0.031-3.485-0.532-4.078-1.688c-0.125,0.719-0.359,1.39-0.703,2.016
		c-0.188-0.157-0.469-0.422-0.844-0.797c0.562-0.938,0.828-2.5,0.797-4.688l1.031,0.094c0.031,0.688,0,1.313-0.094,1.875
		c0.281,0.594,0.593,1.047,0.938,1.359v-3.984h-2.531v-1.031h2.109v-1.5H113.19z M120.643,13.861l-0.188-1.031
		c0.375,0,0.766,0,1.172,0c0.469,0.031,0.719-0.203,0.75-0.703c0-0.188,0.016-0.422,0.047-0.703c0-0.218,0-0.391,0-0.516h-1.828
		c0.031,1.438-0.641,2.516-2.016,3.234c-0.219-0.281-0.469-0.546-0.75-0.797c1.156-0.562,1.718-1.375,1.688-2.438h-1.453V9.877
		h5.484c0,0.594-0.031,1.391-0.094,2.391c-0.031,1.062-0.5,1.578-1.406,1.547c-0.157,0-0.391,0-0.703,0
		C121.065,13.846,120.83,13.861,120.643,13.861z M118.393,18.408v-3.844h5.016v3.844H118.393z M119.518,15.549v1.875h2.766v-1.875
		H119.518z"/>
	<path class="st0" d="M141.847,20.377c-2.656-1.406-4.219-3.438-4.688-6.094c-0.469,2.625-2.062,4.704-4.781,6.234
		c-0.25-0.406-0.547-0.797-0.891-1.172c3-1.531,4.609-3.875,4.828-7.031c0.062-0.75,0.094-1.688,0.094-2.812h1.406
		c-0.031,0.094-0.047,0.375-0.047,0.844c-0.031,0.375-0.047,0.656-0.047,0.844c0.281,4.062,1.969,6.734,5.062,8.016
		C142.379,19.642,142.066,20.033,141.847,20.377z"/>
</g>
</svg>
